<svg xmlns="http://www.w3.org/2000/svg" width="537" height="318" viewBox="0 0 141.81667 84.1375"><g transform="matrix(.7962772278 -.6049318776 .6049318776 .7962772278 0 -212.8625)" fill="none" stroke="#999" stroke-width="1.32292"><rect width="24" height="24" x="-177.89278" y="238.23106" ry="0" rx="0"/><rect width="24" height="24" x="-153.89278" y="238.23109" ry="0" rx="0"/><rect width="24" height="24" x="-129.89284" y="238.23109" ry="0" rx="0"/><rect width="24" height="24" x="-105.89286" y="238.23109" ry="0" rx="0"/><rect width="24" height="24" x="-81.89291" y="238.23111" ry="0" rx="0"/><rect width="24" height="24" x="-57.89291" y="238.23111" ry="0" rx="0"/><rect width="24" height="24" x="-33.89291" y="238.23111" ry="0" rx="0"/><rect width="24" height="24" x="-153.89278" y="214.23111" ry="0" rx="0"/><rect width="24" height="24" x="-129.89287" y="214.23111" ry="0" rx="0"/><rect width="24" height="24" x="-105.89294" y="214.23111" ry="0" rx="0"/><rect width="24" height="24" x="-81.89298" y="214.23111" ry="0" rx="0"/><rect width="24" height="24" x="-129.89287" y="190.23112" ry="0" rx="0"/><rect width="24" height="24" x="-105.89294" y="190.23112" ry="0" rx="0"/><rect width="24" height="24" x="-105.89291" y="262.23114" ry="0" rx="0"/><rect width="24" height="24" x="-81.89291" y="262.23114" ry="0" rx="0"/><rect width="24" height="24" x="-57.89291" y="262.23114" ry="0" rx="0"/><rect width="24" height="24" x="-129.89278" y="262.23108" ry="0" rx="0"/></g></svg>