<svg xmlns="http://www.w3.org/2000/svg" width="537" height="318" viewBox="0 0 141.8167 84.1375"><g transform="matrix(-.79627727 -.60493182 -.60493182 .79627727 0 -212.8625)" fill="none" stroke="#999" stroke-width="1.3229"><rect width="24" height="24" x="-219.2495" y="200.8639" ry="0" rx="0"/><rect width="24" height="24" x="-219.2494" y="152.8638" ry="0" rx="0"/><rect width="24" height="24" x="-195.2495" y="152.8638" ry="0" rx="0"/><rect width="24" height="24" x="-147.2495" y="152.8638" ry="0" rx="0"/><rect width="24" height="24" x="-267.2493" y="128.8638" ry="0" rx="0"/><rect width="24" height="24" x="-243.2494" y="128.8637" ry="0" rx="0"/><rect width="24" height="24" x="-219.2495" y="128.8637" ry="0" rx="0"/><rect width="24" height="24" x="-195.2496" y="128.8637" ry="0" rx="0"/><rect width="24" height="24" x="-243.2494" y="104.8637" ry="0" rx="0"/><rect width="24" height="24" x="-219.2495" y="104.8637" ry="0" rx="0"/><rect width="24" height="24" x="-219.2495" y="176.8639" ry="0" rx="0"/><rect width="24" height="24" x="-195.2495" y="176.8639" ry="0" rx="0"/><rect width="24" height="24" x="-171.2495" y="176.8639" ry="0" rx="0"/><rect width="24" height="24" x="-243.2494" y="176.8638" ry="0" rx="0"/></g></svg>