<?xml version="1.0" standalone="no"?>
<!DOCTYPE svg PUBLIC "-//W3C//DTD SVG 20010904//EN"
 "http://www.w3.org/TR/2001/REC-SVG-20010904/DTD/svg10.dtd">
<svg version="1.0" xmlns="http://www.w3.org/2000/svg"
 width="1000.000000pt" height="1000.000000pt" viewBox="0 0 1000.000000 1000.000000"
 preserveAspectRatio="xMidYMid meet">
<metadata>
Created by potrace 1.11, written by Peter Selinger 2001-2013
</metadata>
<g transform="translate(0.000000,1000.000000) scale(0.100000,-0.100000)"
fill="#000000" stroke="none">
<path d="M3649 8338 c5 -13 77 -189 161 -393 83 -203 150 -379 147 -390 -6
-31 -1964 -5131 -1997 -5203 -35 -75 -123 -171 -194 -211 -63 -36 -161 -68
-257 -84 l-74 -13 -3 -202 -2 -202 1025 0 1025 0 0 199 0 200 -57 5 c-148 15
-295 37 -366 55 -163 42 -274 117 -324 219 -23 48 -28 72 -31 157 -5 144 25
248 224 782 l169 453 1219 -3 1218 -2 159 -405 c182 -464 222 -578 245 -698
42 -224 -26 -382 -200 -463 -106 -49 -197 -68 -473 -95 l-53 -5 0 -200 0 -199
1680 0 1680 0 0 200 c0 199 0 200 -22 204 -306 57 -434 134 -516 308 -22 46
-570 1416 -1218 3045 l-1179 2963 -997 0 -998 0 9 -22z m1152 -2791 l516
-1312 -1010 -3 c-556 -1 -1012 -1 -1013 1 -5 4 980 2627 986 2627 3 0 237
-591 521 -1313z"/>
<path d="M565 5626 c-185 -36 -358 -157 -464 -323 -125 -199 -129 -478 -9
-706 47 -88 182 -222 275 -270 201 -105 466 -105 666 0 93 49 230 182 280 273
144 263 106 590 -94 804 -104 112 -207 176 -334 210 -85 23 -235 28 -320 12z"/>
<path d="M9178 5630 c-353 -64 -597 -374 -575 -730 17 -283 187 -514 450 -612
72 -28 98 -32 212 -36 152 -5 230 10 340 63 179 86 321 261 372 455 22 85 22
252 -1 344 -28 116 -88 219 -186 316 -93 93 -175 143 -294 179 -78 24 -243 35
-318 21z"/>
</g>
</svg>
